<svg width="1200" height="760" viewBox="0 0 1200 760" fill="none" xmlns="http://www.w3.org/2000/svg">
  <rect width="1200" height="760" rx="42" fill="#081018"/>
  <rect x="1" y="1" width="1198" height="758" rx="41" stroke="white" stroke-opacity="0.12"/>
  <text x="92" y="116" fill="#E5F0FF" font-family="Inter, Arial, sans-serif" font-size="34" font-weight="700">Browser Job Agent</text>
  <text x="92" y="153" fill="#8EA4BD" font-family="Inter, Arial, sans-serif" font-size="17">repeatable web tasks with observation, actions and memory</text>
  <rect x="82" y="202" width="1036" height="468" rx="30" fill="#0D1722" stroke="white" stroke-opacity="0.1"/>
  <rect x="122" y="242" width="664" height="388" rx="24" fill="#0A121B" stroke="white" stroke-opacity="0.1"/>
  <rect x="122" y="242" width="664" height="58" rx="24" fill="#101C29"/>
  <circle cx="158" cy="271" r="7" fill="#5EA2FF"/>
  <circle cx="184" cy="271" r="7" fill="#64748B"/>
  <circle cx="210" cy="271" r="7" fill="#334155"/>
  <rect x="250" y="258" width="330" height="26" rx="13" fill="#081018" stroke="white" stroke-opacity="0.08"/>
  <text x="276" y="276" fill="#8EA4BD" font-family="IBM Plex Mono, monospace" font-size="12">https://research-dashboard.local</text>
  <g>
    <rect x="158" y="342" width="252" height="92" rx="18" fill="#10263A"/>
    <rect x="438" y="342" width="252" height="92" rx="18" fill="#10202E"/>
    <rect x="158" y="462" width="252" height="92" rx="18" fill="#10202E"/>
    <rect x="438" y="462" width="252" height="92" rx="18" fill="#0F2F3B"/>
  </g>
  <g fill="#DCEBFF" font-family="IBM Plex Mono, monospace" font-size="13">
    <text x="184" y="378">extract records</text>
    <text x="464" y="378">compare fields</text>
    <text x="184" y="498">watch changes</text>
    <text x="464" y="498">write report</text>
  </g>
  <path d="M410 388C450 388 426 508 464 508" stroke="#5EA2FF" stroke-width="4" stroke-linecap="round"/>
  <path d="M284 434C284 454 284 438 284 462" stroke="#6EE7F9" stroke-width="4" stroke-linecap="round"/>
  <rect x="822" y="242" width="256" height="388" rx="24" fill="#0A121B" stroke="white" stroke-opacity="0.1"/>
  <text x="852" y="292" fill="#9CC7FF" font-family="IBM Plex Mono, monospace" font-size="14">AGENT RUN</text>
  <g font-family="IBM Plex Mono, monospace" font-size="13">
    <rect x="852" y="330" width="166" height="38" rx="13" fill="#12263B"/>
    <text x="872" y="354" fill="#DCEBFF">observe page</text>
    <rect x="852" y="388" width="192" height="38" rx="13" fill="#10212F"/>
    <text x="872" y="412" fill="#B7C7D8">decide action</text>
    <rect x="852" y="446" width="174" height="38" rx="13" fill="#10212F"/>
    <text x="872" y="470" fill="#B7C7D8">click + type</text>
    <rect x="852" y="504" width="198" height="38" rx="13" fill="#0F2F3B"/>
    <text x="872" y="528" fill="#6EE7F9">persist result</text>
  </g>
</svg>
