<svg width="1200" height="760" viewBox="0 0 1200 760" fill="none" xmlns="http://www.w3.org/2000/svg">
  <rect width="1200" height="760" rx="42" fill="#081018"/>
  <rect x="1" y="1" width="1198" height="758" rx="41" stroke="white" stroke-opacity="0.12"/>
  <circle cx="1010" cy="120" r="260" fill="url(#blueGlow)" opacity="0.22"/>
  <circle cx="190" cy="620" r="300" fill="url(#cyanGlow)" opacity="0.12"/>
  <path d="M92 104H1108" stroke="white" stroke-opacity="0.08"/>
  <circle cx="116" cy="72" r="8" fill="#5EA2FF"/>
  <circle cx="144" cy="72" r="8" fill="#94A3B8"/>
  <circle cx="172" cy="72" r="8" fill="#334155"/>
  <text x="94" y="137" fill="#E5F0FF" font-family="Inter, Arial, sans-serif" font-size="34" font-weight="700">PhyloTracer</text>
  <text x="94" y="174" fill="#8EA4BD" font-family="Inter, Arial, sans-serif" font-size="17">comparative genomics workflow cockpit</text>
  <rect x="82" y="216" width="670" height="454" rx="30" fill="#0D1722" stroke="white" stroke-opacity="0.1"/>
  <rect x="114" y="250" width="196" height="34" rx="17" fill="#132235"/>
  <text x="134" y="273" fill="#9CC7FF" font-family="IBM Plex Mono, monospace" font-size="14">GENE TREE VIEW</text>
  <path d="M196 582V508M196 508H292M196 508H292M292 458V558M292 458H418M292 558H418M418 418V498M418 418H560M418 498H560M418 558H560M560 382H666M560 454H666M560 526H666M560 596H666" stroke="#5EA2FF" stroke-width="4" stroke-linecap="round" stroke-linejoin="round"/>
  <g fill="#0B1220" stroke-width="3">
    <circle cx="196" cy="582" r="14" stroke="#6EE7F9"/>
    <circle cx="292" cy="458" r="14" stroke="#5EA2FF"/>
    <circle cx="292" cy="558" r="14" stroke="#5EA2FF"/>
    <circle cx="418" cy="418" r="14" stroke="#9CC7FF"/>
    <circle cx="418" cy="498" r="14" stroke="#9CC7FF"/>
    <circle cx="418" cy="558" r="14" stroke="#9CC7FF"/>
    <circle cx="560" cy="382" r="14" stroke="#6EE7F9"/>
    <circle cx="560" cy="454" r="14" stroke="#6EE7F9"/>
    <circle cx="560" cy="526" r="14" stroke="#6EE7F9"/>
    <circle cx="560" cy="596" r="14" stroke="#6EE7F9"/>
  </g>
  <g fill="#DCEBFF" font-family="IBM Plex Mono, monospace" font-size="13">
    <text x="687" y="388">Os01g</text>
    <text x="687" y="460">Zm04g</text>
    <text x="687" y="532">At12g</text>
    <text x="687" y="602">Sb07g</text>
  </g>
  <rect x="790" y="216" width="328" height="454" rx="30" fill="#0D1722" stroke="white" stroke-opacity="0.1"/>
  <text x="826" y="266" fill="#E5F0FF" font-family="Inter, Arial, sans-serif" font-size="23" font-weight="700">Pipeline Trace</text>
  <g font-family="IBM Plex Mono, monospace" font-size="13">
    <rect x="826" y="306" width="228" height="42" rx="14" fill="#12263B"/>
    <text x="848" y="332" fill="#9CC7FF">01 root gene tree</text>
    <rect x="826" y="368" width="252" height="42" rx="14" fill="#10212F"/>
    <text x="848" y="394" fill="#B7C7D8">02 detect duplication</text>
    <rect x="826" y="430" width="238" height="42" rx="14" fill="#10212F"/>
    <text x="848" y="456" fill="#B7C7D8">03 infer loss events</text>
    <rect x="826" y="492" width="214" height="42" rx="14" fill="#10212F"/>
    <text x="848" y="518" fill="#B7C7D8">04 retrieve orthologs</text>
    <rect x="826" y="554" width="244" height="42" rx="14" fill="#0F2F3B"/>
    <text x="848" y="580" fill="#6EE7F9">05 export evidence</text>
  </g>
  <defs>
    <radialGradient id="blueGlow" cx="0" cy="0" r="1" gradientUnits="userSpaceOnUse" gradientTransform="translate(1010 120) rotate(90) scale(260)">
      <stop stop-color="#5EA2FF"/>
      <stop offset="1" stop-color="#5EA2FF" stop-opacity="0"/>
    </radialGradient>
    <radialGradient id="cyanGlow" cx="0" cy="0" r="1" gradientUnits="userSpaceOnUse" gradientTransform="translate(190 620) rotate(90) scale(300)">
      <stop stop-color="#6EE7F9"/>
      <stop offset="1" stop-color="#6EE7F9" stop-opacity="0"/>
    </radialGradient>
  </defs>
</svg>
